HIERARCHY
ROOT ui
{
	 OFFSET 0 0 0
	 CHANNELS 3 XPosition YPosition Z Position
	 EndSite
	 {
	 OFFSET 0 -1 0
	 }
}
ROOT li
{
	 OFFSET 0 0 0
	 CHANNELS 3 XPosition YPosition Z Position
	 EndSite
	 {
	 OFFSET 0 -1 0
	 }
}
ROOT ul
{
	 OFFSET 0 0 0
	 CHANNELS 3 XPosition YPosition Z Position
	 EndSite
	 {
	 OFFSET 0 -1 0
	 }
}
ROOT ll
{
	 OFFSET 0 0 0
	 CHANNELS 3 XPosition YPosition Z Position
	 EndSite
	 {
	 OFFSET 0 -1 0
	 }
}
ROOT tt
{
	 OFFSET 0 0 0
	 CHANNELS 3 XPosition YPosition Z Position
	 EndSite
	 {
	 OFFSET 0 -1 0
	 }
}
ROOT tb
{
	 OFFSET 0 0 0
	 CHANNELS 3 XPosition YPosition Z Position
	 EndSite
	 {
	 OFFSET 0 -1 0
	 }
}
ROOT td
{
	 OFFSET 0 0 0
	 CHANNELS 3 XPosition YPosition Z Position
	 EndSite
	 {
	 OFFSET 0 -1 0
	 }
}
ROOT v
{
	 OFFSET 0 0 0
	 CHANNELS 3 XPosition YPosition Z Position
	 EndSite
	 {
	 OFFSET 0 -1 0
	 }
}
ROOT bn
{
	 OFFSET 0 0 0
	 CHANNELS 3 XPosition YPosition Z Position
	 EndSite
	 {
	 OFFSET 0 -1 0
	 }
}
MOTION
Frames: 29
Frame Time: 0.002
0.010606121063232422	1.2384200096130372E-4	0		0.4337213134765625	-2.40678662109375	0		-0.9925036010742188	0.155146240234375	0		-0.7138546752929688	-2.624959228515625	0		1.656435302734375	-0.57679150390625	0		3.366607177734375	-0.4848563232421875	0		4.54025439453125	-0.5142525024414063	0		5.85319287109375	0.37275726318359376	0		-0.09596720123291015	5.94342822265625	0		
0.0016052360534667969	0.001153015971183777	0		0.4062328186035156	-2.38137841796875	0		-0.9984273681640625	0.16010211181640624	0		-0.654835693359375	-2.625293701171875	0		1.6533409423828125	-0.5808599243164062	0		3.354712646484375	-0.47872573852539063	0		4.54605810546875	-0.5234625244140625	0		5.85316552734375	0.3726816711425781	0		-0.08184903717041016	5.95399609375	0		
0.005689215183258056	0.003925048112869263	0		0.40888946533203124	-2.401576904296875	0		-0.9925050048828125	0.15482321166992188	0		-0.7137854614257813	-2.625275146484375	0		1.6641324462890625	-0.5932032470703125	0		3.3718798828125	-0.472170654296875	0		4.536509765625	-0.502357666015625	0		5.85832421875	0.37950735473632813	0		-0.0799398193359375	5.9518076171875	0		
0.010683307647705078	-3.165920078754425E-4	0		0.4488455505371094	-2.40950927734375	0		-0.9883533935546875	0.1585880126953125	0		-0.6716083374023437	-2.622262939453125	0		1.6731527099609376	-0.5965049438476563	0		3.37081591796875	-0.42924234008789064	0		4.5599638671875	-0.4839080810546875	0		5.86257275390625	0.38835260009765626	0		-0.080915771484375	5.95268359375	0		
0.005888556957244873	0.0036458630561828614	0		0.3857427062988281	-2.3713759765625	0		-1.005928466796875	0.17379676818847656	0		-0.6822960815429687	-2.61418896484375	0		1.66740380859375	-0.59050634765625	0		3.360787841796875	-0.43714443969726563	0		4.5542734375	-0.4748811645507813	0		5.85853515625	0.38035614013671876	0		-0.2152218017578125	5.93521435546875	0		
0.006061841964721679	0.0035179009437561037	0		0.4087695617675781	-2.379956787109375	0		-1.0098152465820311	0.17074160766601562	0		-0.6522887573242188	-2.623916259765625	0		1.6645224609375	-0.5935621337890625	0		3.368400146484375	-0.4153917236328125	0		4.5606279296875	-0.466097412109375	0		5.8497275390625	0.3814490051269531	0		-0.21509124755859374	5.9350849609375	0		
0.007121307849884033	-0.004619126796722412	0		0.38156597900390626	-2.401532958984375	0		-1.0095972900390624	0.17061875915527344	0		-0.6520595092773438	-2.62403759765625	0		1.6706031494140625	-0.6007919921875	0		3.350902099609375	-0.4011419372558594	0		4.5471494140625	-0.4509224853515625	0		5.85794287109375	0.3811949157714844	0		-0.09670130920410157	5.94361865234375	0		
0.006539544105529785	0.0032903070449829103	0		0.436757568359375	-2.405733642578125	0		-1.0093384399414063	0.17050865173339844	0		-0.710805419921875	-2.623974853515625	0		1.6788017578125	-0.6040571899414062	0		3.367715087890625	-0.37357009887695314	0		4.56250537109375	-0.44632476806640625	0		5.86751806640625	0.39691131591796874	0		-0.21464486694335938	5.9348564453125	0		
0.006832487106323242	0.0031918909549713136	0		0.3851982727050781	-2.397800537109375	0		-1.0049865112304688	0.17333082580566406	0		-0.6704823608398438	-2.622867919921875	0		1.6883310546875	-0.592337890625	0		3.362750244140625	-0.38656881713867186	0		4.56421484375	-0.4254501953125	0		5.8758095703125	0.39665008544921876	0		-0.08193692016601563	5.954130859375	0		
0.012070486068725586	-9.943490028381347E-4	0		0.41192578125	-2.377409423828125	0		-1.0095675048828125	0.17834286499023438	0		-0.716939453125	-2.61102294921875	0		1.691707763671875	-0.5894879760742188	0		3.373801513671875	-0.3498669128417969	0		4.56387109375	-0.40852734375	0		5.87197021484375	0.3886357727050781	0		-0.08161063385009766	5.95404296875	0		
-0.07045904541015625	0.006576785087585449	0		0.3832647705078125	-2.376910400390625	0		-1.0043328857421876	0.17316806030273438	0		-0.6447398071289062	-2.618529296875	0		1.6920421142578126	-0.5895662231445312	0		3.357218994140625	-0.3456092224121094	0		4.5714423828125	-0.3967489318847656	0		5.86814697265625	0.38063583374023435	0		-0.08225175476074219	5.95498583984375	0		
0.003771744966506958	3.9948001503944394E-5	0		0.40850775146484375	-2.38247314453125	0		-1.008887939453125	0.1781981201171875	0		-0.7162588500976562	-2.611167724609375	0		1.6985452880859375	-0.5817525024414063	0		3.36497998046875	-0.3248161926269531	0		4.5659677734375	-0.3876939392089844	0		5.87264990234375	0.3884936828613281	0		-0.08093333435058593	5.95389892578125	0		
0.009025018692016601	-0.00511710786819458	0		0.4114718017578125	-2.402586181640625	0		-1.0036353149414063	0.17303749084472655	0		-0.6311512451171875	-2.624915283203125	0		1.7167781982421875	-0.5881616821289063	0		3.3651162109375	-0.3358608703613281	0		4.56668017578125	-0.3697401123046875	0		5.87716015625	0.3963746337890625	0		-0.07864085388183593	5.95180029296875	0		
0.00854867172241211	0.002849666118621826	0		0.42780886840820315	-2.404952392578125	0		-0.99411474609375	0.1807991485595703	0		-0.6944791259765625	-2.609702392578125	0		1.68253076171875	-0.5685108032226562	0		3.365337158203125	-0.29287945556640627	0		4.57222509765625	-0.3608634338378906	0		5.87752197265625	0.39636080932617185	0		-0.07929449462890625	5.95276806640625	0		
0.013845073699951171	-0.001294327974319458	0		0.4157865905761719	-2.37574169921875	0		-0.929732421875	0.18047344970703125	0		-0.6242503662109375	-2.619142822265625	0		1.744920654296875	-0.5687716064453125	0		3.3464228515625	-0.30751321411132815	0		4.57294287109375	-0.34386932373046875	0		5.8737373046875	0.3884515380859375	0		-0.07995365905761719	5.9537412109375	0		
0.010154536247253418	-0.00525461483001709	0		0.4121053161621094	-2.38069677734375	0		-1.0074105834960938	0.17796975708007812	0		-0.7075359497070313	-2.603527099609375	0		1.6956031494140624	-0.5538015747070313	0		3.3552294921875	-0.28667568969726565	0		4.56063525390625	-0.3285989685058594	0		5.8644794921875	0.406677734375	0		-0.212049072265625	5.93432275390625	0		
0.0056501379013061525	-1.9253699481487275E-4	0		0.412536376953125	-2.380726806640625	0		-1.0021179809570313	0.1728203125	0		-0.6352346801757812	-2.611000244140625	0		1.7080244140625	-0.5530504760742188	0		3.358727783203125	-0.28172210693359373	0		4.56103564453125	-0.32856689453125	0		5.8738671875	0.4065509033203125	0		-0.09354762268066406	5.94294189453125	0		
0.01094665813446045	-0.005322305202484131	0		0.3875841064453125	-2.400252197265625	0		-1.0017244873046875	0.17277064514160156	0		-0.6927802124023438	-2.60989453125	0		1.700749267578125	-0.5368965454101563	0		3.3665439453125	-0.26083682250976564	0		4.562833984375	-0.3085411376953125	0		5.88323486328125	0.40544570922851564	0		-0.0780618896484375	5.952609375	0		
0.010494388580322266	0.0026694040298461913	0		0.4175123596191406	-2.375849609375	0		-0.9921824340820312	0.1805433349609375	0		-0.6872188720703125	-2.604035888671875	0		1.714463623046875	-0.5211481323242187	0		3.35174365234375	-0.2704945068359375	0		4.5725244140625	-0.29365359497070315	0		5.88679296875	0.414480712890625	0		-0.07877709197998047	5.9536005859375	0		
0.010865175247192382	0.002649049997329712	0		0.3640494079589844	-2.3697939453125	0		-0.9958942260742187	0.17657881164550782	0		-0.6955665283203125	-2.592897216796875	0		1.7378819580078124	-0.5195826416015625	0		3.36365234375	-0.24365756225585938	0		4.561904296875	-0.29334738159179685	0		5.88715380859375	0.41460101318359377	0		-0.07854874420166015	5.953578125	0		
0.01612417411804199	-0.001462030053138733	0		0.4142446594238281	-2.380782470703125	0		-0.9315526733398437	0.17627545166015626	0		-0.6592244873046875	-2.59663916015625	0		1.7484697265625	-0.5077493286132813	0		3.363997802734375	-0.24358113098144532	0		4.57940576171875	-0.2855759887695313	0		5.88332470703125	0.40682537841796873	0		-0.21077734375	5.934171875	0		
-0.06952790069580078	0.0022271730899810793	0		0.36073483276367185	-2.373713134765625	0		-1.005251708984375	0.17770083618164062	0		-0.6947905883789063	-2.592955322265625	0		1.7518546142578124	-0.503763671875	0		3.351673828125	-0.22423577880859374	0		4.56496484375	-0.27215447998046877	0		5.88776123046875	0.41491162109375	0		-0.07825138092041016	5.9535546875	0		
0.007668521881103516	-2.8702101111412046E-4	0		0.416971435546875	-2.377800048828125	0		-1.0001256103515626	0.17257426452636718	0		-0.6795784301757812	-2.5982685546875	0		1.7303223876953124	-0.4922745666503906	0		3.3725537109375	-0.24253627014160156	0		4.57414404296875	-0.2751832580566406	0		5.90113427734375	0.42284402465820314	0		-0.07624910736083984	5.95151611328125	0		
-0.06115542221069336	0.0010799030065536499	0		0.3969443054199219	-2.39137890625	0		-0.9908133544921875	0.18037326049804686	0		-0.6711516723632812	-2.589439208984375	0		1.749675048828125	-0.483578857421875	0		3.3725498046875	-0.20039799499511718	0		4.57088623046875	-0.24594248962402343	0		5.91443701171875	0.43080029296875	0		-0.07628974914550782	5.95152490234375	0		
0.011983107566833497	0.0026663739681243898	0		0.42047317504882814	-2.37379833984375	0		-0.9208179931640625	0.17498622131347658	0		-0.670964111328125	-2.589443115234375	0		1.7431209716796876	-0.46636114501953124	0		3.338559326171875	-0.20458798217773438	0		4.57304736328125	-0.24279635620117188	0		5.89557763671875	0.43440679931640624	0		-0.07739173889160156	5.95256201171875	0		
-0.06593206787109375	0.006221651077270508	0		0.39261798095703127	-2.3722060546875	0		-0.9248712158203125	0.17105972290039062	0		-0.6826773071289063	-2.5812060546875	0		1.7662236328125	-0.4637173767089844	0		3.34096923828125	-0.1854765167236328	0		4.57620458984375	-0.23665565490722656	0		5.89559228515625	0.43465692138671874	0		-0.09277694702148437	5.94288330078125	0		
0.012837812423706055	-0.0052848877906799315	0		0.41758563232421875	-2.3776416015625	0		-0.9998828735351563	0.1725262908935547	0		-0.6707578735351563	-2.589427978515625	0		1.7554580078125	-0.4514013366699219	0		3.355953857421875	-0.18560646057128907	0		4.56037255859375	-0.22713528442382813	0		5.89555615234375	0.4349163818359375	0		-0.21023291015625	5.9332041015625	0		
0.011942173957824707	0.002776859998703003	0		0.3657679138183594	-2.369570556640625	0		-0.988138427734375	0.1623006134033203	0		-0.6676366577148437	-2.585468505859375	0		1.7656741943359375	-0.438490478515625	0		3.3584541015625	-0.15748336791992187	0		4.57338525390625	-0.22417730712890624	0		5.90064306640625	0.44307870483398437	0		-0.07810053253173828	5.952662109375	0		
0.01187744426727295	0.0028255848884582518	0		0.42071841430664064	-2.373578857421875	0		-0.9831318969726562	0.16621588134765625	0		-0.7343635864257813	-2.572142578125	0		1.758937744140625	-0.42224649047851565	0		3.353909423828125	-0.1822335662841797	0		4.56750439453125	-0.2148520050048828	0		5.9047177734375	0.45125665283203126	0		-0.21077903747558593	5.9332802734375	0		
